<?xml version="1.0" standalone="no"?>
<!DOCTYPE svg PUBLIC "-//W3C//DTD SVG 20010904//EN"
 "http://www.w3.org/TR/2001/REC-SVG-20010904/DTD/svg10.dtd">
<svg version="1.0" xmlns="http://www.w3.org/2000/svg"
 width="700.000000pt" height="700.000000pt" viewBox="0 0 700.000000 700.000000"
 preserveAspectRatio="xMidYMid meet">
<metadata>
Created by potrace 1.14, written by Peter Selinger 2001-2017
</metadata>
<g transform="translate(0.000000,700.000000) scale(0.100000,-0.100000)"
fill="#000000" stroke="none">
<path d="M6028 6995 c-1 -1 -21 -5 -43 -8 -201 -29 -419 -168 -550 -351 -42
-60 -102 -169 -111 -204 -2 -10 -13 -51 -24 -92 -22 -80 -32 -236 -19 -305 4
-22 10 -57 13 -78 5 -33 18 -73 58 -179 9 -27 -15 -53 -929 -966 l-938 -938
-75 29 c-127 49 -312 72 -425 52 -16 -3 -43 -8 -60 -11 -154 -28 -324 -122
-442 -243 -295 -303 -328 -771 -79 -1108 64 -87 109 -132 198 -195 223 -160
499 -202 768 -116 453 145 704 653 543 1103 -14 39 -30 75 -35 82 -7 9 251
273 930 953 518 517 943 940 947 940 3 0 33 -11 67 -25 121 -49 303 -72 422
-54 28 5 65 11 81 13 44 8 133 40 195 71 208 105 366 287 436 502 34 104 39
145 38 293 -2 104 -6 140 -28 215 -66 221 -217 410 -417 519 -60 33 -154 70
-204 81 -11 2 -31 7 -45 10 -26 7 -266 16 -272 10z"/>
<path d="M2897 6194 c-1 -1 -38 -4 -82 -8 -44 -4 -105 -11 -135 -16 -30 -5
-73 -11 -95 -14 -275 -32 -725 -193 -1017 -363 l-67 -39 359 -594 c198 -327
363 -602 367 -610 18 -36 207 -346 218 -358 10 -11 24 -7 76 21 148 79 330
129 514 142 28 2 53 4 58 4 4 1 7 415 7 921 l0 921 -101 -3 c-55 -2 -101 -4
-102 -4z"/>
<path d="M3229 6188 c-1 -7 -2 -424 -3 -925 l-1 -913 45 -6 c25 -3 88 -16 140
-29 l95 -24 678 677 c372 372 677 679 677 682 0 3 -12 12 -28 22 -15 9 -67 42
-117 73 -323 203 -769 366 -1150 420 -78 11 -101 14 -170 20 -38 3 -91 8 -117
11 -35 3 -48 1 -49 -8z"/>
<path d="M1285 5611 c-61 -43 -150 -113 -199 -156 l-88 -78 653 -653 c647
-647 653 -652 675 -636 22 17 22 17 4 47 -266 441 -737 1224 -835 1387 -5 9
-30 51 -55 92 l-45 74 -110 -77z"/>
<path d="M828 5207 c-246 -268 -459 -596 -582 -897 -15 -36 -31 -74 -36 -85
-27 -59 -85 -247 -119 -389 -54 -217 -76 -373 -87 -603 l-6 -133 921 0 c507 0
921 3 922 8 0 4 3 36 5 72 19 276 136 558 314 753 l51 56 -638 638 c-351 351
-646 644 -654 650 -14 11 -27 0 -91 -70z"/>
<path d="M4968 4183 c-401 -401 -676 -684 -674 -693 2 -8 5 -22 8 -30 12 -34
29 -101 34 -140 3 -23 7 -49 9 -58 2 -9 4 -22 4 -27 1 -7 314 -10 924 -10
l922 0 -1 35 c-2 93 -19 251 -34 335 -6 28 -12 67 -16 88 -10 66 -61 268 -94
372 -72 224 -180 457 -313 673 -45 72 -84 132 -87 132 -3 0 -310 -305 -682
-677z"/>
<path d="M4354 3057 c-5 -285 -124 -582 -315 -792 l-50 -54 652 -652 652 -652
74 79 c240 258 453 584 583 894 17 41 35 84 40 95 30 72 110 327 124 395 2 8
7 33 11 55 5 22 9 45 11 50 27 111 52 317 60 495 l6 130 -923 0 -924 0 -1 -43z"/>
<path d="M6 2970 c-4 -6 0 -65 8 -160 35 -392 163 -818 349 -1168 l18 -32 37
20 c20 11 100 58 177 105 77 46 149 90 160 97 401 242 688 416 716 432 20 12
139 84 266 160 l230 140 -24 52 c-32 70 -69 196 -83 285 l-12 74 -920 0 c-506
0 -921 -2 -922 -5z"/>
<path d="M1991 2434 c-30 -21 -583 -354 -588 -354 -2 0 -9 -5 -16 -10 -7 -6
-78 -50 -158 -98 -576 -344 -779 -468 -779 -475 0 -14 140 -219 213 -312 73
-93 106 -131 194 -224 l51 -55 653 652 652 653 -30 32 c-59 63 -75 83 -116
144 -23 34 -44 63 -47 63 -3 0 -16 -7 -29 -16z"/>
<path d="M3874 2111 l-22 -17 370 -615 c204 -338 380 -630 391 -649 10 -19 27
-46 36 -60 9 -14 21 -34 28 -45 6 -11 37 -64 69 -117 l57 -97 26 17 c94 59
355 265 364 288 3 6 -288 304 -646 662 -646 645 -652 651 -673 633z"/>
<path d="M1647 1472 l-648 -648 48 -45 c140 -130 432 -331 620 -427 67 -34
126 -62 131 -62 8 0 45 85 184 425 27 66 59 145 72 175 13 30 42 102 66 160
23 58 48 119 55 135 7 17 72 174 144 350 73 176 142 345 156 375 13 30 25 60
27 66 3 10 -185 144 -201 144 -3 0 -298 -292 -654 -648z"/>
<path d="M3650 1974 c-172 -87 -338 -125 -540 -127 -161 -1 -261 14 -392 57
l-96 32 -15 -35 c-8 -20 -43 -103 -77 -186 -34 -82 -68 -163 -75 -180 -7 -16
-42 -102 -78 -190 -36 -88 -152 -369 -257 -625 -106 -256 -194 -470 -197 -476
-5 -14 226 -101 342 -130 6 -1 57 -14 115 -28 58 -15 134 -31 170 -37 36 -6
77 -13 92 -15 131 -23 280 -31 493 -29 132 2 251 5 265 8 14 3 52 8 85 12 357
38 774 174 1118 364 92 51 96 55 84 75 -15 24 -137 227 -152 254 -6 9 -84 140
-175 290 -91 150 -171 282 -178 295 -70 125 -430 711 -437 712 -6 1 -48 -18
-95 -41z"/>
</g>
</svg>
